{
	"asset":{
		"generator":"Khronos glTF Blender I/O v3.6.27",
		"version":"2.0"
	},
	"extensionsUsed":[
		"KHR_materials_specular",
		"KHR_materials_ior",
		"KHR_texture_transform"
	],
	"extensionsRequired":[
		"KHR_texture_transform"
	],
	"scene":0,
	"scenes":[
		{
			"extras":{
				"kitsu":{},
				"animaide":{
					"anim_offset":{}
				},
				"MustardUI_Settings":{},
				"wiggle":{},
				"camera_settings":{},
				"lookdev":{}
			},
			"name":"Scene",
			"nodes":[
				27
			]
		}
	],
	"nodes":[
		{
			"name":"LegF.IK",
			"rotation":[
				0,
				0,
				-1.2627380721723792e-40,
				1
			],
			"translation":[
				0,
				0.9000000953674316,
				0
			]
		},
		{
			"children":[
				0
			],
			"name":"LegF.003",
			"rotation":[
				0,
				0,
				-1.2627380721723792e-40,
				1
			],
			"translation":[
				0,
				0.8999998569488525,
				0
			]
		},
		{
			"children":[
				1
			],
			"name":"LegF.002",
			"rotation":[
				-7.450580596923828e-09,
				-8.474091755303838e-33,
				1.137373342260413e-24,
				1
			],
			"translation":[
				-1.1519992178736632e-24,
				0.9000000953674316,
				5.815152803734236e-10
			]
		},
		{
			"children":[
				2
			],
			"name":"LegF.001",
			"rotation":[
				0.1009698435664177,
				2.078574036509436e-25,
				-1.2116337299065449e-17,
				0.994889497756958
			],
			"scale":[
				1,
				1,
				0.9999999403953552
			],
			"translation":[
				8.271806125530277e-25,
				1.083058476448059,
				1.4901161193847656e-08
			]
		},
		{
			"name":"LegR.IK",
			"rotation":[
				-1.7973776266444474e-05,
				4.4387618580721266e-10,
				0.0113435760140419,
				0.9999356865882874
			],
			"scale":[
				0.9999999403953552,
				1,
				1
			],
			"translation":[
				9.051291272044182e-09,
				0.901486337184906,
				-1.3504177331924438e-08
			]
		},
		{
			"children":[
				4
			],
			"name":"LegR.003",
			"rotation":[
				-5.74145224163658e-06,
				9.458895472436168e-11,
				0.003623486962169409,
				0.9999934434890747
			],
			"scale":[
				1,
				1,
				1.0000001192092896
			],
			"translation":[
				-6.915070116519928e-08,
				0.9052696228027344,
				3.259629011154175e-09
			]
		},
		{
			"children":[
				5
			],
			"name":"LegR.002",
			"rotation":[
				1.0969240975100547e-05,
				4.3657147341669145e-10,
				-0.00692288763821125,
				0.9999760389328003
			],
			"scale":[
				1,
				1,
				1.0000001192092896
			],
			"translation":[
				-1.4522811397910118e-08,
				0.8904690742492676,
				-4.6566128730773926e-09
			]
		},
		{
			"children":[
				6
			],
			"name":"LegR.001",
			"rotation":[
				0.10137996077537537,
				3.010386606661086e-08,
				0.007813535630702972,
				0.9948171377182007
			],
			"scale":[
				0.9999998807907104,
				1,
				0.9999998807907104
			],
			"translation":[
				2.885741956504262e-08,
				1.0905482769012451,
				6.541664987480544e-09
			]
		},
		{
			"children":[
				7
			],
			"name":"RootR",
			"rotation":[
				-0.0002096858952427283,
				0.1746370494365692,
				-0.8496968746185303,
				0.4975109100341797
			],
			"scale":[
				0.9999998211860657,
				0.9999998807907104,
				0.9999999403953552
			],
			"translation":[
				-8.271806125530277e-25,
				0,
				-1.4901161193847656e-08
			]
		},
		{
			"name":"LegL.IK",
			"rotation":[
				-1.8375416402705014e-05,
				6.548183523191753e-11,
				-0.028523217886686325,
				0.9995931386947632
			],
			"scale":[
				1,
				1,
				1.0000001192092896
			],
			"translation":[
				4.99130692332983e-09,
				0.893948495388031,
				-7.450580596923828e-09
			]
		},
		{
			"children":[
				9
			],
			"name":"LegL.003",
			"rotation":[
				1.4186268799676327e-06,
				6.184556339272618e-11,
				0.0022020393516868353,
				0.999997615814209
			],
			"scale":[
				0.9999999403953552,
				1,
				1
			],
			"translation":[
				-5.940091796219349e-08,
				0.9007470607757568,
				0
			]
		},
		{
			"children":[
				10
			],
			"name":"LegL.002",
			"rotation":[
				1.2702843150691479e-06,
				-3.4633624856894585e-09,
				0.0019486733945086598,
				0.9999980926513672
			],
			"scale":[
				1,
				0.9999999403953552,
				1
			],
			"translation":[
				5.7247234508395195e-08,
				0.888618528842926,
				-1.862645149230957e-09
			]
		},
		{
			"children":[
				11
			],
			"name":"LegL.001",
			"rotation":[
				0.10070575773715973,
				5.038776507149123e-08,
				-0.0031984997913241386,
				0.9949111342430115
			],
			"scale":[
				0.9999999403953552,
				1,
				1
			],
			"translation":[
				1.5998882219037114e-08,
				1.0978554487228394,
				-1.952800587901038e-08
			]
		},
		{
			"children":[
				12
			],
			"name":"RootL",
			"rotation":[
				0.0001316001871600747,
				-0.1739286333322525,
				0.8492008447647095,
				0.49860477447509766
			],
			"scale":[
				1,
				1,
				0.9999999403953552
			],
			"translation":[
				-8.271806125530277e-25,
				0,
				-1.4901161193847656e-08
			]
		},
		{
			"name":"Body.R",
			"rotation":[
				-4.21468548950088e-08,
				-0.7071067094802856,
				4.214684778958144e-08,
				0.7071068286895752
			],
			"translation":[
				1.7370796019057202e-24,
				8.067988822597211e-19,
				7.152558367806705e-08
			]
		},
		{
			"children":[
				14
			],
			"name":"Body.U",
			"rotation":[
				0.7748895883560181,
				-8.567543046852685e-18,
				-8.567545528394523e-18,
				0.6320966482162476
			],
			"scale":[
				1,
				1,
				0.9999999403953552
			],
			"translation":[
				-8.271806125530277e-25,
				0,
				-1.4901161193847656e-08
			]
		},
		{
			"children":[
				3,
				8,
				13,
				15
			],
			"name":"Root",
			"rotation":[
				-0.7748895883560181,
				8.567543874033298e-18,
				8.567543046852685e-18,
				0.6320966482162476
			],
			"scale":[
				1,
				0.9999999403953552,
				1
			]
		},
		{
			"mesh":0,
			"name":"Body",
			"skin":0
		},
		{
			"mesh":1,
			"name":"LegF.001",
			"skin":0
		},
		{
			"mesh":2,
			"name":"LegF.002",
			"skin":0
		},
		{
			"mesh":3,
			"name":"LegF.003",
			"skin":0
		},
		{
			"mesh":4,
			"name":"LegL.001",
			"skin":0
		},
		{
			"mesh":5,
			"name":"LegL.002",
			"skin":0
		},
		{
			"mesh":6,
			"name":"LegL.003",
			"skin":0
		},
		{
			"mesh":7,
			"name":"LegR.001",
			"skin":0
		},
		{
			"mesh":8,
			"name":"LegR.002",
			"skin":0
		},
		{
			"mesh":9,
			"name":"LegR.003",
			"skin":0
		},
		{
			"children":[
				17,
				18,
				19,
				20,
				21,
				22,
				23,
				24,
				25,
				26,
				16
			],
			"name":"Armature"
		}
	],
	"materials":[
		{
			"doubleSided":true,
			"extensions":{
				"KHR_materials_specular":{
					"specularColorFactor":[
						0,
						0,
						0
					]
				},
				"KHR_materials_ior":{
					"ior":1.4500000476837158
				}
			},
			"name":"Metal",
			"pbrMetallicRoughness":{
				"baseColorFactor":[
					0.0448831208050251,
					0.024181436747312546,
					0.022678684443235397,
					1
				],
				"metallicFactor":0.7642857432365417,
				"metallicRoughnessTexture":{
					"extensions":{
						"KHR_texture_transform":{
							"offset":[
								1.648894119836385,
								2.6034796118125483
							],
							"rotation":0.7993607521057129,
							"scale":[
								-2.299999713897705,
								-2.299999713897705
							]
						}
					},
					"index":0
				},
				"roughnessFactor":1.119999885559082
			}
		}
	],
	"meshes":[
		{
			"name":"Circle",
			"primitives":[
				{
					"attributes":{
						"POSITION":0,
						"NORMAL":1,
						"TEXCOORD_0":2,
						"TANGENT":3,
						"JOINTS_0":4,
						"WEIGHTS_0":5
					},
					"indices":6,
					"material":0
				}
			]
		},
		{
			"name":"Cube",
			"primitives":[
				{
					"attributes":{
						"POSITION":8,
						"NORMAL":9,
						"TEXCOORD_0":10,
						"JOINTS_0":11,
						"WEIGHTS_0":12
					},
					"indices":13,
					"material":0
				}
			]
		},
		{
			"name":"Cube.001",
			"primitives":[
				{
					"attributes":{
						"POSITION":14,
						"NORMAL":15,
						"TEXCOORD_0":16,
						"JOINTS_0":17,
						"WEIGHTS_0":18
					},
					"indices":19,
					"material":0
				}
			]
		},
		{
			"name":"Cube.002",
			"primitives":[
				{
					"attributes":{
						"POSITION":20,
						"NORMAL":21,
						"TEXCOORD_0":22,
						"JOINTS_0":23,
						"WEIGHTS_0":24
					},
					"indices":19,
					"material":0
				}
			]
		},
		{
			"name":"Cube.003",
			"primitives":[
				{
					"attributes":{
						"POSITION":25,
						"NORMAL":26,
						"TEXCOORD_0":27,
						"JOINTS_0":28,
						"WEIGHTS_0":29
					},
					"indices":30,
					"material":0
				}
			]
		},
		{
			"name":"Cube.004",
			"primitives":[
				{
					"attributes":{
						"POSITION":31,
						"NORMAL":32,
						"TEXCOORD_0":33,
						"JOINTS_0":34,
						"WEIGHTS_0":35
					},
					"indices":30,
					"material":0
				}
			]
		},
		{
			"name":"Cube.005",
			"primitives":[
				{
					"attributes":{
						"POSITION":36,
						"NORMAL":37,
						"TEXCOORD_0":38,
						"JOINTS_0":39,
						"WEIGHTS_0":40
					},
					"indices":30,
					"material":0
				}
			]
		},
		{
			"name":"Cube.006",
			"primitives":[
				{
					"attributes":{
						"POSITION":41,
						"NORMAL":42,
						"TEXCOORD_0":43,
						"JOINTS_0":44,
						"WEIGHTS_0":45
					},
					"indices":46,
					"material":0
				}
			]
		},
		{
			"name":"Cube.007",
			"primitives":[
				{
					"attributes":{
						"POSITION":47,
						"NORMAL":48,
						"TEXCOORD_0":49,
						"JOINTS_0":50,
						"WEIGHTS_0":51
					},
					"indices":46,
					"material":0
				}
			]
		},
		{
			"name":"Cube.008",
			"primitives":[
				{
					"attributes":{
						"POSITION":52,
						"NORMAL":53,
						"TEXCOORD_0":54,
						"JOINTS_0":55,
						"WEIGHTS_0":56
					},
					"indices":46,
					"material":0
				}
			]
		}
	],
	"textures":[
		{
			"sampler":0,
			"source":0
		}
	],
	"images":[
		{
			"mimeType":"image/png",
			"name":"rust_coarse_01_disp_4k.png",
			"uri":"../../Models/textures/rust_coarse_01_disp_4k.png"
		}
	],
	"skins":[
		{
			"inverseBindMatrices":7,
			"joints":[
				16,
				3,
				2,
				1,
				0,
				8,
				7,
				6,
				5,
				4,
				13,
				12,
				11,
				10,
				9,
				15,
				14
			],
			"name":"Armature"
		}
	],
	"accessors":[
		{
			"bufferView":0,
			"componentType":5126,
			"count":454,
			"max":[
				1.1994171142578125,
				0.07130064070224762,
				1.1994171142578125
			],
			"min":[
				-1.1994171142578125,
				-0.16225168108940125,
				-1.1994171142578125
			],
			"type":"VEC3"
		},
		{
			"bufferView":1,
			"componentType":5126,
			"count":454,
			"type":"VEC3"
		},
		{
			"bufferView":2,
			"componentType":5126,
			"count":454,
			"type":"VEC2"
		},
		{
			"bufferView":3,
			"componentType":5126,
			"count":454,
			"type":"VEC4"
		},
		{
			"bufferView":4,
			"componentType":5121,
			"count":454,
			"type":"VEC4"
		},
		{
			"bufferView":5,
			"componentType":5126,
			"count":454,
			"type":"VEC4"
		},
		{
			"bufferView":6,
			"componentType":5123,
			"count":768,
			"type":"SCALAR"
		},
		{
			"bufferView":7,
			"componentType":5126,
			"count":17,
			"type":"MAT4"
		},
		{
			"bufferView":8,
			"componentType":5126,
			"count":72,
			"max":[
				0.18186719715595245,
				-0.129792720079422,
				-0.9718397259712219
			],
			"min":[
				-0.18186722695827484,
				-0.3074924647808075,
				-1.962752342224121
			],
			"type":"VEC3"
		},
		{
			"bufferView":9,
			"componentType":5126,
			"count":72,
			"type":"VEC3"
		},
		{
			"bufferView":10,
			"componentType":5126,
			"count":72,
			"type":"VEC2"
		},
		{
			"bufferView":11,
			"componentType":5121,
			"count":72,
			"type":"VEC4"
		},
		{
			"bufferView":12,
			"componentType":5126,
			"count":72,
			"type":"VEC4"
		},
		{
			"bufferView":13,
			"componentType":5123,
			"count":120,
			"type":"SCALAR"
		},
		{
			"bufferView":14,
			"componentType":5126,
			"count":72,
			"max":[
				0.09238122403621674,
				-0.13266746699810028,
				-1.8721752166748047
			],
			"min":[
				-0.09238123893737793,
				-0.310367226600647,
				-2.8630878925323486
			],
			"type":"VEC3"
		},
		{
			"bufferView":15,
			"componentType":5126,
			"count":72,
			"type":"VEC3"
		},
		{
			"bufferView":16,
			"componentType":5126,
			"count":72,
			"type":"VEC2"
		},
		{
			"bufferView":17,
			"componentType":5121,
			"count":72,
			"type":"VEC4"
		},
		{
			"bufferView":18,
			"componentType":5126,
			"count":72,
			"type":"VEC4"
		},
		{
			"bufferView":19,
			"componentType":5123,
			"count":120,
			"type":"SCALAR"
		},
		{
			"bufferView":20,
			"componentType":5126,
			"count":72,
			"max":[
				0.07498053461313248,
				-0.15276828408241272,
				-2.7904791831970215
			],
			"min":[
				-0.07498055696487427,
				-0.29699698090553284,
				-3.7646563053131104
			],
			"type":"VEC3"
		},
		{
			"bufferView":21,
			"componentType":5126,
			"count":72,
			"type":"VEC3"
		},
		{
			"bufferView":22,
			"componentType":5126,
			"count":72,
			"type":"VEC2"
		},
		{
			"bufferView":23,
			"componentType":5121,
			"count":72,
			"type":"VEC4"
		},
		{
			"bufferView":24,
			"componentType":5126,
			"count":72,
			"type":"VEC4"
		},
		{
			"bufferView":25,
			"componentType":5126,
			"count":72,
			"max":[
				-0.750704288482666,
				-0.129792720079422,
				1.0357261896133423
			],
			"min":[
				-1.7311723232269287,
				-0.3074924647808075,
				0.32841819524765015
			],
			"type":"VEC3"
		},
		{
			"bufferView":26,
			"componentType":5126,
			"count":72,
			"type":"VEC3"
		},
		{
			"bufferView":27,
			"componentType":5126,
			"count":72,
			"type":"VEC2"
		},
		{
			"bufferView":28,
			"componentType":5121,
			"count":72,
			"type":"VEC4"
		},
		{
			"bufferView":29,
			"componentType":5126,
			"count":72,
			"type":"VEC4"
		},
		{
			"bufferView":30,
			"componentType":5123,
			"count":120,
			"type":"SCALAR"
		},
		{
			"bufferView":31,
			"componentType":5126,
			"count":72,
			"max":[
				-1.5751606225967407,
				-0.13266746699810028,
				1.485893964767456
			],
			"min":[
				-2.5041587352752686,
				-0.310367226600647,
				0.8560830950737
			],
			"type":"VEC3"
		},
		{
			"bufferView":32,
			"componentType":5126,
			"count":72,
			"type":"VEC3"
		},
		{
			"bufferView":33,
			"componentType":5126,
			"count":72,
			"type":"VEC2"
		},
		{
			"bufferView":34,
			"componentType":5121,
			"count":72,
			"type":"VEC4"
		},
		{
			"bufferView":35,
			"componentType":5126,
			"count":72,
			"type":"VEC4"
		},
		{
			"bufferView":36,
			"componentType":5126,
			"count":72,
			"max":[
				-2.3791353702545166,
				-0.15276828408241272,
				1.916803240776062
			],
			"min":[
				-3.2759249210357666,
				-0.29699698090553284,
				1.3303043842315674
			],
			"type":"VEC3"
		},
		{
			"bufferView":37,
			"componentType":5126,
			"count":72,
			"type":"VEC3"
		},
		{
			"bufferView":38,
			"componentType":5126,
			"count":72,
			"type":"VEC2"
		},
		{
			"bufferView":39,
			"componentType":5121,
			"count":72,
			"type":"VEC4"
		},
		{
			"bufferView":40,
			"componentType":5126,
			"count":72,
			"type":"VEC4"
		},
		{
			"bufferView":41,
			"componentType":5126,
			"count":72,
			"max":[
				1.7311723232269287,
				-0.129792720079422,
				1.0357263088226318
			],
			"min":[
				0.750704288482666,
				-0.3074924647808075,
				0.32841840386390686
			],
			"type":"VEC3"
		},
		{
			"bufferView":42,
			"componentType":5126,
			"count":72,
			"type":"VEC3"
		},
		{
			"bufferView":43,
			"componentType":5126,
			"count":72,
			"type":"VEC2"
		},
		{
			"bufferView":44,
			"componentType":5121,
			"count":72,
			"type":"VEC4"
		},
		{
			"bufferView":45,
			"componentType":5126,
			"count":72,
			"type":"VEC4"
		},
		{
			"bufferView":46,
			"componentType":5123,
			"count":120,
			"type":"SCALAR"
		},
		{
			"bufferView":47,
			"componentType":5126,
			"count":72,
			"max":[
				2.510885715484619,
				-0.13266746699810028,
				1.4742426872253418
			],
			"min":[
				1.5751606225967407,
				-0.310367226600647,
				0.8560833930969238
			],
			"type":"VEC3"
		},
		{
			"bufferView":48,
			"componentType":5126,
			"count":72,
			"type":"VEC3"
		},
		{
			"bufferView":49,
			"componentType":5126,
			"count":72,
			"type":"VEC2"
		},
		{
			"bufferView":50,
			"componentType":5121,
			"count":72,
			"type":"VEC4"
		},
		{
			"bufferView":51,
			"componentType":5126,
			"count":72,
			"type":"VEC4"
		},
		{
			"bufferView":52,
			"componentType":5126,
			"count":72,
			"max":[
				3.2801918983459473,
				-0.15276828408241272,
				1.9094126224517822
			],
			"min":[
				2.3791351318359375,
				-0.29699698090553284,
				1.3303046226501465
			],
			"type":"VEC3"
		},
		{
			"bufferView":53,
			"componentType":5126,
			"count":72,
			"type":"VEC3"
		},
		{
			"bufferView":54,
			"componentType":5126,
			"count":72,
			"type":"VEC2"
		},
		{
			"bufferView":55,
			"componentType":5121,
			"count":72,
			"type":"VEC4"
		},
		{
			"bufferView":56,
			"componentType":5126,
			"count":72,
			"type":"VEC4"
		}
	],
	"bufferViews":[
		{
			"buffer":0,
			"byteLength":5448,
			"byteOffset":0,
			"target":34962
		},
		{
			"buffer":0,
			"byteLength":5448,
			"byteOffset":5448,
			"target":34962
		},
		{
			"buffer":0,
			"byteLength":3632,
			"byteOffset":10896,
			"target":34962
		},
		{
			"buffer":0,
			"byteLength":7264,
			"byteOffset":14528,
			"target":34962
		},
		{
			"buffer":0,
			"byteLength":1816,
			"byteOffset":21792,
			"target":34962
		},
		{
			"buffer":0,
			"byteLength":7264,
			"byteOffset":23608,
			"target":34962
		},
		{
			"buffer":0,
			"byteLength":1536,
			"byteOffset":30872,
			"target":34963
		},
		{
			"buffer":0,
			"byteLength":1088,
			"byteOffset":32408
		},
		{
			"buffer":0,
			"byteLength":864,
			"byteOffset":33496,
			"target":34962
		},
		{
			"buffer":0,
			"byteLength":864,
			"byteOffset":34360,
			"target":34962
		},
		{
			"buffer":0,
			"byteLength":576,
			"byteOffset":35224,
			"target":34962
		},
		{
			"buffer":0,
			"byteLength":288,
			"byteOffset":35800,
			"target":34962
		},
		{
			"buffer":0,
			"byteLength":1152,
			"byteOffset":36088,
			"target":34962
		},
		{
			"buffer":0,
			"byteLength":240,
			"byteOffset":37240,
			"target":34963
		},
		{
			"buffer":0,
			"byteLength":864,
			"byteOffset":37480,
			"target":34962
		},
		{
			"buffer":0,
			"byteLength":864,
			"byteOffset":38344,
			"target":34962
		},
		{
			"buffer":0,
			"byteLength":576,
			"byteOffset":39208,
			"target":34962
		},
		{
			"buffer":0,
			"byteLength":288,
			"byteOffset":39784,
			"target":34962
		},
		{
			"buffer":0,
			"byteLength":1152,
			"byteOffset":40072,
			"target":34962
		},
		{
			"buffer":0,
			"byteLength":240,
			"byteOffset":41224,
			"target":34963
		},
		{
			"buffer":0,
			"byteLength":864,
			"byteOffset":41464,
			"target":34962
		},
		{
			"buffer":0,
			"byteLength":864,
			"byteOffset":42328,
			"target":34962
		},
		{
			"buffer":0,
			"byteLength":576,
			"byteOffset":43192,
			"target":34962
		},
		{
			"buffer":0,
			"byteLength":288,
			"byteOffset":43768,
			"target":34962
		},
		{
			"buffer":0,
			"byteLength":1152,
			"byteOffset":44056,
			"target":34962
		},
		{
			"buffer":0,
			"byteLength":864,
			"byteOffset":45208,
			"target":34962
		},
		{
			"buffer":0,
			"byteLength":864,
			"byteOffset":46072,
			"target":34962
		},
		{
			"buffer":0,
			"byteLength":576,
			"byteOffset":46936,
			"target":34962
		},
		{
			"buffer":0,
			"byteLength":288,
			"byteOffset":47512,
			"target":34962
		},
		{
			"buffer":0,
			"byteLength":1152,
			"byteOffset":47800,
			"target":34962
		},
		{
			"buffer":0,
			"byteLength":240,
			"byteOffset":48952,
			"target":34963
		},
		{
			"buffer":0,
			"byteLength":864,
			"byteOffset":49192,
			"target":34962
		},
		{
			"buffer":0,
			"byteLength":864,
			"byteOffset":50056,
			"target":34962
		},
		{
			"buffer":0,
			"byteLength":576,
			"byteOffset":50920,
			"target":34962
		},
		{
			"buffer":0,
			"byteLength":288,
			"byteOffset":51496,
			"target":34962
		},
		{
			"buffer":0,
			"byteLength":1152,
			"byteOffset":51784,
			"target":34962
		},
		{
			"buffer":0,
			"byteLength":864,
			"byteOffset":52936,
			"target":34962
		},
		{
			"buffer":0,
			"byteLength":864,
			"byteOffset":53800,
			"target":34962
		},
		{
			"buffer":0,
			"byteLength":576,
			"byteOffset":54664,
			"target":34962
		},
		{
			"buffer":0,
			"byteLength":288,
			"byteOffset":55240,
			"target":34962
		},
		{
			"buffer":0,
			"byteLength":1152,
			"byteOffset":55528,
			"target":34962
		},
		{
			"buffer":0,
			"byteLength":864,
			"byteOffset":56680,
			"target":34962
		},
		{
			"buffer":0,
			"byteLength":864,
			"byteOffset":57544,
			"target":34962
		},
		{
			"buffer":0,
			"byteLength":576,
			"byteOffset":58408,
			"target":34962
		},
		{
			"buffer":0,
			"byteLength":288,
			"byteOffset":58984,
			"target":34962
		},
		{
			"buffer":0,
			"byteLength":1152,
			"byteOffset":59272,
			"target":34962
		},
		{
			"buffer":0,
			"byteLength":240,
			"byteOffset":60424,
			"target":34963
		},
		{
			"buffer":0,
			"byteLength":864,
			"byteOffset":60664,
			"target":34962
		},
		{
			"buffer":0,
			"byteLength":864,
			"byteOffset":61528,
			"target":34962
		},
		{
			"buffer":0,
			"byteLength":576,
			"byteOffset":62392,
			"target":34962
		},
		{
			"buffer":0,
			"byteLength":288,
			"byteOffset":62968,
			"target":34962
		},
		{
			"buffer":0,
			"byteLength":1152,
			"byteOffset":63256,
			"target":34962
		},
		{
			"buffer":0,
			"byteLength":864,
			"byteOffset":64408,
			"target":34962
		},
		{
			"buffer":0,
			"byteLength":864,
			"byteOffset":65272,
			"target":34962
		},
		{
			"buffer":0,
			"byteLength":576,
			"byteOffset":66136,
			"target":34962
		},
		{
			"buffer":0,
			"byteLength":288,
			"byteOffset":66712,
			"target":34962
		},
		{
			"buffer":0,
			"byteLength":1152,
			"byteOffset":67000,
			"target":34962
		}
	],
	"samplers":[
		{
			"magFilter":9728,
			"minFilter":9984
		}
	],
	"buffers":[
		{
			"byteLength":68152,
			"uri":"Dish-3817bacbc5a1262ec323daa49e6e3642.bin"
		}
	]
}
