{
	"asset":{
		"generator":"Khronos glTF Blender I/O v3.6.27",
		"version":"2.0"
	},
	"scene":0,
	"scenes":[
		{
			"extras":{
				"kitsu":{},
				"animaide":{
					"anim_offset":{}
				},
				"MustardUI_Settings":{},
				"wiggle":{},
				"camera_settings":{},
				"lookdev":{}
			},
			"name":"Scene",
			"nodes":[
				0
			]
		}
	],
	"nodes":[
		{
			"mesh":0,
			"name":"Cube"
		}
	],
	"materials":[
		{
			"doubleSided":true,
			"name":"Dark",
			"pbrMetallicRoughness":{
				"baseColorFactor":[
					0.03417736291885376,
					0.027733396738767624,
					0.03707793727517128,
					1
				],
				"metallicFactor":0,
				"roughnessFactor":0.5
			}
		},
		{
			"doubleSided":true,
			"name":"Glask",
			"pbrMetallicRoughness":{
				"baseColorFactor":[
					0.1682823896408081,
					0.27412518858909607,
					0.8407347202301025,
					1
				],
				"metallicFactor":0,
				"roughnessFactor":0.5
			}
		}
	],
	"meshes":[
		{
			"name":"Cube.009",
			"primitives":[
				{
					"attributes":{
						"POSITION":0,
						"NORMAL":1,
						"TEXCOORD_0":2,
						"TANGENT":3
					},
					"indices":4,
					"material":0
				},
				{
					"attributes":{
						"POSITION":5,
						"NORMAL":6,
						"TEXCOORD_0":7,
						"TANGENT":8
					},
					"indices":9,
					"material":1
				}
			]
		}
	],
	"accessors":[
		{
			"bufferView":0,
			"componentType":5126,
			"count":825,
			"max":[
				0.15954667329788208,
				0.15954667329788208,
				0.15954667329788208
			],
			"min":[
				-0.15954667329788208,
				-0.15954667329788208,
				-0.15954667329788208
			],
			"type":"VEC3"
		},
		{
			"bufferView":1,
			"componentType":5126,
			"count":825,
			"type":"VEC3"
		},
		{
			"bufferView":2,
			"componentType":5126,
			"count":825,
			"type":"VEC2"
		},
		{
			"bufferView":3,
			"componentType":5126,
			"count":825,
			"type":"VEC4"
		},
		{
			"bufferView":4,
			"componentType":5123,
			"count":1692,
			"type":"SCALAR"
		},
		{
			"bufferView":5,
			"componentType":5126,
			"count":96,
			"max":[
				0.1449349969625473,
				0.12969854474067688,
				0.1449349969625473
			],
			"min":[
				-0.1449349969625473,
				-0.059878818690776825,
				-0.1449349969625473
			],
			"type":"VEC3"
		},
		{
			"bufferView":6,
			"componentType":5126,
			"count":96,
			"type":"VEC3"
		},
		{
			"bufferView":7,
			"componentType":5126,
			"count":96,
			"type":"VEC2"
		},
		{
			"bufferView":8,
			"componentType":5126,
			"count":96,
			"type":"VEC4"
		},
		{
			"bufferView":9,
			"componentType":5123,
			"count":144,
			"type":"SCALAR"
		}
	],
	"bufferViews":[
		{
			"buffer":0,
			"byteLength":9900,
			"byteOffset":0,
			"target":34962
		},
		{
			"buffer":0,
			"byteLength":9900,
			"byteOffset":9900,
			"target":34962
		},
		{
			"buffer":0,
			"byteLength":6600,
			"byteOffset":19800,
			"target":34962
		},
		{
			"buffer":0,
			"byteLength":13200,
			"byteOffset":26400,
			"target":34962
		},
		{
			"buffer":0,
			"byteLength":3384,
			"byteOffset":39600,
			"target":34963
		},
		{
			"buffer":0,
			"byteLength":1152,
			"byteOffset":42984,
			"target":34962
		},
		{
			"buffer":0,
			"byteLength":1152,
			"byteOffset":44136,
			"target":34962
		},
		{
			"buffer":0,
			"byteLength":768,
			"byteOffset":45288,
			"target":34962
		},
		{
			"buffer":0,
			"byteLength":1536,
			"byteOffset":46056,
			"target":34962
		},
		{
			"buffer":0,
			"byteLength":288,
			"byteOffset":47592,
			"target":34963
		}
	],
	"buffers":[
		{
			"byteLength":47880,
			"uri":"House-bb269f695e2512d78fa528afb14f1df1.bin"
		}
	]
}
