{
	"asset":{
		"generator":"Khronos glTF Blender I/O v3.6.27",
		"version":"2.0"
	},
	"scene":0,
	"scenes":[
		{
			"extras":{
				"kitsu":{},
				"wiggle":{}
			},
			"name":"Scene",
			"nodes":[
				0
			]
		}
	],
	"nodes":[
		{
			"mesh":0,
			"name":"Mine"
		}
	],
	"materials":[
		{
			"doubleSided":true,
			"name":"Stone",
			"pbrMetallicRoughness":{
				"baseColorFactor":[
					0.24436430633068085,
					0.24618881940841675,
					0.21545054018497467,
					1
				],
				"metallicFactor":0,
				"roughnessFactor":0.5
			}
		},
		{
			"doubleSided":true,
			"name":"Metal",
			"pbrMetallicRoughness":{
				"baseColorFactor":[
					0.07657796889543533,
					0.052302055060863495,
					0.028064019978046417,
					1
				],
				"metallicFactor":0,
				"roughnessFactor":0.5
			}
		},
		{
			"doubleSided":true,
			"name":"Metal_Light",
			"pbrMetallicRoughness":{
				"baseColorFactor":[
					0.19017364084720612,
					0.19017364084720612,
					0.19017364084720612,
					1
				],
				"metallicFactor":0,
				"roughnessFactor":0.5
			}
		},
		{
			"doubleSided":true,
			"name":"Wood",
			"pbrMetallicRoughness":{
				"baseColorFactor":[
					0.24618732929229736,
					0.14435896277427673,
					0.053798429667949677,
					1
				],
				"metallicFactor":0,
				"roughnessFactor":0.5
			}
		},
		{
			"doubleSided":true,
			"name":"Wood_Light",
			"pbrMetallicRoughness":{
				"baseColorFactor":[
					0.3757452964782715,
					0.24318844079971313,
					0.09746062755584717,
					1
				],
				"metallicFactor":0,
				"roughnessFactor":0.5
			}
		}
	],
	"meshes":[
		{
			"name":"Cube.081",
			"primitives":[
				{
					"attributes":{
						"POSITION":0,
						"NORMAL":1,
						"TEXCOORD_0":2
					},
					"indices":3,
					"material":0
				},
				{
					"attributes":{
						"POSITION":4,
						"NORMAL":5,
						"TEXCOORD_0":6
					},
					"indices":7,
					"material":1
				},
				{
					"attributes":{
						"POSITION":8,
						"NORMAL":9,
						"TEXCOORD_0":10
					},
					"indices":11,
					"material":2
				},
				{
					"attributes":{
						"POSITION":12,
						"NORMAL":13,
						"TEXCOORD_0":14
					},
					"indices":15,
					"material":3
				},
				{
					"attributes":{
						"POSITION":16,
						"NORMAL":17,
						"TEXCOORD_0":18
					},
					"indices":19,
					"material":4
				}
			]
		}
	],
	"accessors":[
		{
			"bufferView":0,
			"componentType":5126,
			"count":1065,
			"max":[
				0.7551243901252747,
				1.1538187265396118,
				0.5724393725395203
			],
			"min":[
				-0.5291751623153687,
				-0.013656704686582088,
				-0.6499731540679932
			],
			"type":"VEC3"
		},
		{
			"bufferView":1,
			"componentType":5126,
			"count":1065,
			"type":"VEC3"
		},
		{
			"bufferView":2,
			"componentType":5126,
			"count":1065,
			"type":"VEC2"
		},
		{
			"bufferView":3,
			"componentType":5123,
			"count":2454,
			"type":"SCALAR"
		},
		{
			"bufferView":4,
			"componentType":5126,
			"count":356,
			"max":[
				-0.011755618266761303,
				0.29648682475090027,
				0.6982386112213135
			],
			"min":[
				-0.32709723711013794,
				-0.006031166762113571,
				0.022494612261652946
			],
			"type":"VEC3"
		},
		{
			"bufferView":5,
			"componentType":5126,
			"count":356,
			"type":"VEC3"
		},
		{
			"bufferView":6,
			"componentType":5126,
			"count":356,
			"type":"VEC2"
		},
		{
			"bufferView":7,
			"componentType":5123,
			"count":606,
			"type":"SCALAR"
		},
		{
			"bufferView":8,
			"componentType":5126,
			"count":208,
			"max":[
				-0.11432020366191864,
				0.1085817739367485,
				0.6222577691078186
			],
			"min":[
				-0.24546940624713898,
				-0.0003537843294907361,
				0.05323898792266846
			],
			"type":"VEC3"
		},
		{
			"bufferView":9,
			"componentType":5126,
			"count":208,
			"type":"VEC3"
		},
		{
			"bufferView":10,
			"componentType":5126,
			"count":208,
			"type":"VEC2"
		},
		{
			"bufferView":11,
			"componentType":5123,
			"count":324,
			"type":"SCALAR"
		},
		{
			"bufferView":12,
			"componentType":5126,
			"count":924,
			"max":[
				0.28507858514785767,
				0.27707719802856445,
				0.71126389503479
			],
			"min":[
				-0.4014747142791748,
				-0.009028107859194279,
				0.1509028524160385
			],
			"type":"VEC3"
		},
		{
			"bufferView":13,
			"componentType":5126,
			"count":924,
			"type":"VEC3"
		},
		{
			"bufferView":14,
			"componentType":5126,
			"count":924,
			"type":"VEC2"
		},
		{
			"bufferView":15,
			"componentType":5123,
			"count":1710,
			"type":"SCALAR"
		},
		{
			"bufferView":16,
			"componentType":5126,
			"count":1192,
			"max":[
				0.2794671058654785,
				0.24694335460662842,
				0.5374236702919006
			],
			"min":[
				-0.36019328236579895,
				-0.0154355987906456,
				0.23641321063041687
			],
			"type":"VEC3"
		},
		{
			"bufferView":17,
			"componentType":5126,
			"count":1192,
			"type":"VEC3"
		},
		{
			"bufferView":18,
			"componentType":5126,
			"count":1192,
			"type":"VEC2"
		},
		{
			"bufferView":19,
			"componentType":5123,
			"count":1788,
			"type":"SCALAR"
		}
	],
	"bufferViews":[
		{
			"buffer":0,
			"byteLength":12780,
			"byteOffset":0,
			"target":34962
		},
		{
			"buffer":0,
			"byteLength":12780,
			"byteOffset":12780,
			"target":34962
		},
		{
			"buffer":0,
			"byteLength":8520,
			"byteOffset":25560,
			"target":34962
		},
		{
			"buffer":0,
			"byteLength":4908,
			"byteOffset":34080,
			"target":34963
		},
		{
			"buffer":0,
			"byteLength":4272,
			"byteOffset":38988,
			"target":34962
		},
		{
			"buffer":0,
			"byteLength":4272,
			"byteOffset":43260,
			"target":34962
		},
		{
			"buffer":0,
			"byteLength":2848,
			"byteOffset":47532,
			"target":34962
		},
		{
			"buffer":0,
			"byteLength":1212,
			"byteOffset":50380,
			"target":34963
		},
		{
			"buffer":0,
			"byteLength":2496,
			"byteOffset":51592,
			"target":34962
		},
		{
			"buffer":0,
			"byteLength":2496,
			"byteOffset":54088,
			"target":34962
		},
		{
			"buffer":0,
			"byteLength":1664,
			"byteOffset":56584,
			"target":34962
		},
		{
			"buffer":0,
			"byteLength":648,
			"byteOffset":58248,
			"target":34963
		},
		{
			"buffer":0,
			"byteLength":11088,
			"byteOffset":58896,
			"target":34962
		},
		{
			"buffer":0,
			"byteLength":11088,
			"byteOffset":69984,
			"target":34962
		},
		{
			"buffer":0,
			"byteLength":7392,
			"byteOffset":81072,
			"target":34962
		},
		{
			"buffer":0,
			"byteLength":3420,
			"byteOffset":88464,
			"target":34963
		},
		{
			"buffer":0,
			"byteLength":14304,
			"byteOffset":91884,
			"target":34962
		},
		{
			"buffer":0,
			"byteLength":14304,
			"byteOffset":106188,
			"target":34962
		},
		{
			"buffer":0,
			"byteLength":9536,
			"byteOffset":120492,
			"target":34962
		},
		{
			"buffer":0,
			"byteLength":3576,
			"byteOffset":130028,
			"target":34963
		}
	],
	"buffers":[
		{
			"byteLength":133604,
			"uri":"Mine-ec10d4b5729a9e36c623ab791a2f832d.bin"
		}
	]
}
