{
	"asset":{
		"generator":"Khronos glTF Blender I/O v3.6.27",
		"version":"2.0"
	},
	"scene":0,
	"scenes":[
		{
			"extras":{
				"kitsu":{},
				"wiggle":{}
			},
			"name":"Scene",
			"nodes":[
				0
			]
		}
	],
	"nodes":[
		{
			"mesh":0,
			"name":"Resource_Gold_3"
		}
	],
	"materials":[
		{
			"doubleSided":true,
			"name":"Stone",
			"pbrMetallicRoughness":{
				"baseColorFactor":[
					0.24436430633068085,
					0.24618881940841675,
					0.21545054018497467,
					1
				],
				"metallicFactor":0,
				"roughnessFactor":0.5
			}
		},
		{
			"doubleSided":true,
			"name":"Gold",
			"pbrMetallicRoughness":{
				"baseColorFactor":[
					0.3843711018562317,
					0.22474361956119537,
					0.05112964287400246,
					1
				],
				"metallicFactor":0,
				"roughnessFactor":0.5
			}
		}
	],
	"meshes":[
		{
			"name":"Cube.061",
			"primitives":[
				{
					"attributes":{
						"POSITION":0,
						"NORMAL":1,
						"TEXCOORD_0":2
					},
					"indices":3,
					"material":0
				},
				{
					"attributes":{
						"POSITION":4,
						"NORMAL":5,
						"TEXCOORD_0":6
					},
					"indices":7,
					"material":1
				}
			]
		}
	],
	"accessors":[
		{
			"bufferView":0,
			"componentType":5126,
			"count":864,
			"max":[
				0.32126572728157043,
				0.15981590747833252,
				0.1980610191822052
			],
			"min":[
				-0.26946863532066345,
				-0.003634057706221938,
				-0.28567439317703247
			],
			"type":"VEC3"
		},
		{
			"bufferView":1,
			"componentType":5126,
			"count":864,
			"type":"VEC3"
		},
		{
			"bufferView":2,
			"componentType":5126,
			"count":864,
			"type":"VEC2"
		},
		{
			"bufferView":3,
			"componentType":5123,
			"count":2094,
			"type":"SCALAR"
		},
		{
			"bufferView":4,
			"componentType":5126,
			"count":237,
			"max":[
				0.20682719349861145,
				0.15131163597106934,
				0.19736522436141968
			],
			"min":[
				-0.14508138597011566,
				-0.002006883267313242,
				-0.2630613148212433
			],
			"type":"VEC3"
		},
		{
			"bufferView":5,
			"componentType":5126,
			"count":237,
			"type":"VEC3"
		},
		{
			"bufferView":6,
			"componentType":5126,
			"count":237,
			"type":"VEC2"
		},
		{
			"bufferView":7,
			"componentType":5123,
			"count":540,
			"type":"SCALAR"
		}
	],
	"bufferViews":[
		{
			"buffer":0,
			"byteLength":10368,
			"byteOffset":0,
			"target":34962
		},
		{
			"buffer":0,
			"byteLength":10368,
			"byteOffset":10368,
			"target":34962
		},
		{
			"buffer":0,
			"byteLength":6912,
			"byteOffset":20736,
			"target":34962
		},
		{
			"buffer":0,
			"byteLength":4188,
			"byteOffset":27648,
			"target":34963
		},
		{
			"buffer":0,
			"byteLength":2844,
			"byteOffset":31836,
			"target":34962
		},
		{
			"buffer":0,
			"byteLength":2844,
			"byteOffset":34680,
			"target":34962
		},
		{
			"buffer":0,
			"byteLength":1896,
			"byteOffset":37524,
			"target":34962
		},
		{
			"buffer":0,
			"byteLength":1080,
			"byteOffset":39420,
			"target":34963
		}
	],
	"buffers":[
		{
			"byteLength":40500,
			"uri":"Resource_Gold_3-a958068608a967193473a2650737b737.bin"
		}
	]
}
