{
	"asset":{
		"generator":"Khronos glTF Blender I/O v3.6.27",
		"version":"2.0"
	},
	"scene":0,
	"scenes":[
		{
			"extras":{
				"kitsu":{},
				"wiggle":{}
			},
			"name":"Scene",
			"nodes":[
				0
			]
		}
	],
	"nodes":[
		{
			"mesh":0,
			"name":"Resource_Gold_1"
		}
	],
	"materials":[
		{
			"doubleSided":true,
			"name":"Stone",
			"pbrMetallicRoughness":{
				"baseColorFactor":[
					0.24436430633068085,
					0.24618881940841675,
					0.21545054018497467,
					1
				],
				"metallicFactor":0,
				"roughnessFactor":0.5
			}
		},
		{
			"doubleSided":true,
			"name":"Gold",
			"pbrMetallicRoughness":{
				"baseColorFactor":[
					0.3843711018562317,
					0.22474361956119537,
					0.05112964287400246,
					1
				],
				"metallicFactor":0,
				"roughnessFactor":0.5
			}
		}
	],
	"meshes":[
		{
			"name":"Cube.006",
			"primitives":[
				{
					"attributes":{
						"POSITION":0,
						"NORMAL":1,
						"TEXCOORD_0":2
					},
					"indices":3,
					"material":0
				},
				{
					"attributes":{
						"POSITION":4,
						"NORMAL":5,
						"TEXCOORD_0":6
					},
					"indices":7,
					"material":1
				}
			]
		}
	],
	"accessors":[
		{
			"bufferView":0,
			"componentType":5126,
			"count":1054,
			"max":[
				0.4179915189743042,
				0.40187764167785645,
				0.35323578119277954
			],
			"min":[
				-0.3221803903579712,
				-0.013247585855424404,
				-0.4076632857322693
			],
			"type":"VEC3"
		},
		{
			"bufferView":1,
			"componentType":5126,
			"count":1054,
			"type":"VEC3"
		},
		{
			"bufferView":2,
			"componentType":5126,
			"count":1054,
			"type":"VEC2"
		},
		{
			"bufferView":3,
			"componentType":5123,
			"count":2634,
			"type":"SCALAR"
		},
		{
			"bufferView":4,
			"componentType":5126,
			"count":189,
			"max":[
				0.3108361065387726,
				0.40847790241241455,
				0.2569104731082916
			],
			"min":[
				-0.18840329349040985,
				0.058119963854551315,
				-0.19431091845035553
			],
			"type":"VEC3"
		},
		{
			"bufferView":5,
			"componentType":5126,
			"count":189,
			"type":"VEC3"
		},
		{
			"bufferView":6,
			"componentType":5126,
			"count":189,
			"type":"VEC2"
		},
		{
			"bufferView":7,
			"componentType":5123,
			"count":330,
			"type":"SCALAR"
		}
	],
	"bufferViews":[
		{
			"buffer":0,
			"byteLength":12648,
			"byteOffset":0,
			"target":34962
		},
		{
			"buffer":0,
			"byteLength":12648,
			"byteOffset":12648,
			"target":34962
		},
		{
			"buffer":0,
			"byteLength":8432,
			"byteOffset":25296,
			"target":34962
		},
		{
			"buffer":0,
			"byteLength":5268,
			"byteOffset":33728,
			"target":34963
		},
		{
			"buffer":0,
			"byteLength":2268,
			"byteOffset":38996,
			"target":34962
		},
		{
			"buffer":0,
			"byteLength":2268,
			"byteOffset":41264,
			"target":34962
		},
		{
			"buffer":0,
			"byteLength":1512,
			"byteOffset":43532,
			"target":34962
		},
		{
			"buffer":0,
			"byteLength":660,
			"byteOffset":45044,
			"target":34963
		}
	],
	"buffers":[
		{
			"byteLength":45704,
			"uri":"Resource_Gold_1-004c098ab65a6043e7b734c2f36b1332.bin"
		}
	]
}
