{
	"asset":{
		"generator":"Khronos glTF Blender I/O v3.6.27",
		"version":"2.0"
	},
	"scene":0,
	"scenes":[
		{
			"extras":{
				"kitsu":{},
				"wiggle":{}
			},
			"name":"Scene",
			"nodes":[
				0
			]
		}
	],
	"nodes":[
		{
			"mesh":0,
			"name":"Resource_Tree_Group"
		}
	],
	"materials":[
		{
			"doubleSided":true,
			"name":"Wood",
			"pbrMetallicRoughness":{
				"baseColorFactor":[
					0.24618732929229736,
					0.14435896277427673,
					0.053798429667949677,
					1
				],
				"metallicFactor":0,
				"roughnessFactor":0.5
			}
		},
		{
			"doubleSided":true,
			"name":"Green",
			"pbrMetallicRoughness":{
				"baseColorFactor":[
					0.09404914081096649,
					0.1788560301065445,
					0.012008205987513065,
					1
				],
				"metallicFactor":0,
				"roughnessFactor":0.5
			}
		}
	],
	"meshes":[
		{
			"name":"Cylinder.017",
			"primitives":[
				{
					"attributes":{
						"POSITION":0,
						"NORMAL":1
					},
					"indices":2,
					"material":0
				},
				{
					"attributes":{
						"POSITION":3,
						"NORMAL":4
					},
					"indices":5,
					"material":1
				}
			]
		}
	],
	"accessors":[
		{
			"bufferView":0,
			"componentType":5126,
			"count":1490,
			"max":[
				0.8549650311470032,
				0.7628578543663025,
				0.9193814396858215
			],
			"min":[
				-0.8724591135978699,
				0.0019954496528953314,
				-0.7277571558952332
			],
			"type":"VEC3"
		},
		{
			"bufferView":1,
			"componentType":5126,
			"count":1490,
			"type":"VEC3"
		},
		{
			"bufferView":2,
			"componentType":5123,
			"count":8328,
			"type":"SCALAR"
		},
		{
			"bufferView":3,
			"componentType":5126,
			"count":1050,
			"max":[
				0.9735662341117859,
				0.9284979104995728,
				1.0135858058929443
			],
			"min":[
				-0.9963335394859314,
				0.2897869944572449,
				-0.8499900698661804
			],
			"type":"VEC3"
		},
		{
			"bufferView":4,
			"componentType":5126,
			"count":1050,
			"type":"VEC3"
		},
		{
			"bufferView":5,
			"componentType":5123,
			"count":6000,
			"type":"SCALAR"
		}
	],
	"bufferViews":[
		{
			"buffer":0,
			"byteLength":17880,
			"byteOffset":0,
			"target":34962
		},
		{
			"buffer":0,
			"byteLength":17880,
			"byteOffset":17880,
			"target":34962
		},
		{
			"buffer":0,
			"byteLength":16656,
			"byteOffset":35760,
			"target":34963
		},
		{
			"buffer":0,
			"byteLength":12600,
			"byteOffset":52416,
			"target":34962
		},
		{
			"buffer":0,
			"byteLength":12600,
			"byteOffset":65016,
			"target":34962
		},
		{
			"buffer":0,
			"byteLength":12000,
			"byteOffset":77616,
			"target":34963
		}
	],
	"buffers":[
		{
			"byteLength":89616,
			"uri":"Resource_Tree_Group-8d5f8cd48cd9bbbf765d12f9de78cad2.bin"
		}
	]
}
