{
	"asset":{
		"generator":"Khronos glTF Blender I/O v3.6.27",
		"version":"2.0"
	},
	"scene":0,
	"scenes":[
		{
			"extras":{
				"kitsu":{},
				"wiggle":{}
			},
			"name":"Scene",
			"nodes":[
				0
			]
		}
	],
	"nodes":[
		{
			"mesh":0,
			"name":"Resource_PineTree_Group_Cut"
		}
	],
	"materials":[
		{
			"doubleSided":true,
			"name":"Wood",
			"pbrMetallicRoughness":{
				"baseColorFactor":[
					0.24618732929229736,
					0.14435896277427673,
					0.053798429667949677,
					1
				],
				"metallicFactor":0,
				"roughnessFactor":0.5
			}
		},
		{
			"doubleSided":true,
			"name":"Wood_Light",
			"pbrMetallicRoughness":{
				"baseColorFactor":[
					0.3757452964782715,
					0.24318844079971313,
					0.09746062755584717,
					1
				],
				"metallicFactor":0,
				"roughnessFactor":0.5
			}
		}
	],
	"meshes":[
		{
			"name":"Cylinder.012",
			"primitives":[
				{
					"attributes":{
						"POSITION":0,
						"NORMAL":1
					},
					"indices":2,
					"material":0
				},
				{
					"attributes":{
						"POSITION":3,
						"NORMAL":4
					},
					"indices":5,
					"material":1
				}
			]
		}
	],
	"accessors":[
		{
			"bufferView":0,
			"componentType":5126,
			"count":624,
			"max":[
				0.7875903844833374,
				0.20575007796287537,
				0.8041671514511108
			],
			"min":[
				-0.6974818706512451,
				-0.005802422296255827,
				-0.678397536277771
			],
			"type":"VEC3"
		},
		{
			"bufferView":1,
			"componentType":5126,
			"count":624,
			"type":"VEC3"
		},
		{
			"bufferView":2,
			"componentType":5123,
			"count":2160,
			"type":"SCALAR"
		},
		{
			"bufferView":3,
			"componentType":5126,
			"count":316,
			"max":[
				0.7767180800437927,
				0.20575007796287537,
				0.8041671514511108
			],
			"min":[
				-0.6950126886367798,
				-0.005802422296255827,
				-0.678397536277771
			],
			"type":"VEC3"
		},
		{
			"bufferView":4,
			"componentType":5126,
			"count":316,
			"type":"VEC3"
		},
		{
			"bufferView":5,
			"componentType":5123,
			"count":744,
			"type":"SCALAR"
		}
	],
	"bufferViews":[
		{
			"buffer":0,
			"byteLength":7488,
			"byteOffset":0,
			"target":34962
		},
		{
			"buffer":0,
			"byteLength":7488,
			"byteOffset":7488,
			"target":34962
		},
		{
			"buffer":0,
			"byteLength":4320,
			"byteOffset":14976,
			"target":34963
		},
		{
			"buffer":0,
			"byteLength":3792,
			"byteOffset":19296,
			"target":34962
		},
		{
			"buffer":0,
			"byteLength":3792,
			"byteOffset":23088,
			"target":34962
		},
		{
			"buffer":0,
			"byteLength":1488,
			"byteOffset":26880,
			"target":34963
		}
	],
	"buffers":[
		{
			"byteLength":28368,
			"uri":"Resource_PineTree_Group_Cut-97c186968b9279ae6b0418daa2c0626a.bin"
		}
	]
}
