{
	"asset":{
		"generator":"Khronos glTF Blender I/O v3.6.27",
		"version":"2.0"
	},
	"scene":0,
	"scenes":[
		{
			"extras":{
				"kitsu":{},
				"wiggle":{}
			},
			"name":"Scene",
			"nodes":[
				0
			]
		}
	],
	"nodes":[
		{
			"mesh":0,
			"name":"Resource_Tree1"
		}
	],
	"materials":[
		{
			"doubleSided":true,
			"name":"Wood",
			"pbrMetallicRoughness":{
				"baseColorFactor":[
					0.24618732929229736,
					0.14435896277427673,
					0.053798429667949677,
					1
				],
				"metallicFactor":0,
				"roughnessFactor":0.5
			}
		},
		{
			"doubleSided":true,
			"name":"Green",
			"pbrMetallicRoughness":{
				"baseColorFactor":[
					0.09404914081096649,
					0.1788560301065445,
					0.012008205987513065,
					1
				],
				"metallicFactor":0,
				"roughnessFactor":0.5
			}
		}
	],
	"meshes":[
		{
			"name":"Cylinder.003",
			"primitives":[
				{
					"attributes":{
						"POSITION":0,
						"NORMAL":1
					},
					"indices":2,
					"material":0
				},
				{
					"attributes":{
						"POSITION":3,
						"NORMAL":4
					},
					"indices":5,
					"material":1
				}
			]
		}
	],
	"accessors":[
		{
			"bufferView":0,
			"componentType":5126,
			"count":170,
			"max":[
				0.18557733297348022,
				0.7628579139709473,
				0.1645188182592392
			],
			"min":[
				-0.27812322974205017,
				0.0026069851592183113,
				-0.049089375883340836
			],
			"type":"VEC3"
		},
		{
			"bufferView":1,
			"componentType":5126,
			"count":170,
			"type":"VEC3"
		},
		{
			"bufferView":2,
			"componentType":5123,
			"count":936,
			"type":"SCALAR"
		},
		{
			"bufferView":3,
			"componentType":5126,
			"count":126,
			"max":[
				0.31271934509277344,
				0.9284979104995728,
				0.2877233028411865
			],
			"min":[
				-0.40696027874946594,
				0.30851036310195923,
				-0.16420361399650574
			],
			"type":"VEC3"
		},
		{
			"bufferView":4,
			"componentType":5126,
			"count":126,
			"type":"VEC3"
		},
		{
			"bufferView":5,
			"componentType":5123,
			"count":720,
			"type":"SCALAR"
		}
	],
	"bufferViews":[
		{
			"buffer":0,
			"byteLength":2040,
			"byteOffset":0,
			"target":34962
		},
		{
			"buffer":0,
			"byteLength":2040,
			"byteOffset":2040,
			"target":34962
		},
		{
			"buffer":0,
			"byteLength":1872,
			"byteOffset":4080,
			"target":34963
		},
		{
			"buffer":0,
			"byteLength":1512,
			"byteOffset":5952,
			"target":34962
		},
		{
			"buffer":0,
			"byteLength":1512,
			"byteOffset":7464,
			"target":34962
		},
		{
			"buffer":0,
			"byteLength":1440,
			"byteOffset":8976,
			"target":34963
		}
	],
	"buffers":[
		{
			"byteLength":10416,
			"uri":"Resource_Tree1-3e5cb9dbbbb63eab656cbec702b39b71.bin"
		}
	]
}
