{
	"asset":{
		"generator":"Khronos glTF Blender I/O v3.6.27",
		"version":"2.0"
	},
	"scene":0,
	"scenes":[
		{
			"extras":{
				"kitsu":{},
				"wiggle":{}
			},
			"name":"Scene",
			"nodes":[
				0
			]
		}
	],
	"nodes":[
		{
			"mesh":0,
			"name":"Resource_Rock_2"
		}
	],
	"materials":[
		{
			"doubleSided":true,
			"name":"Stone",
			"pbrMetallicRoughness":{
				"baseColorFactor":[
					0.24436430633068085,
					0.24618881940841675,
					0.21545054018497467,
					1
				],
				"metallicFactor":0,
				"roughnessFactor":0.5
			}
		}
	],
	"meshes":[
		{
			"name":"Cube.056",
			"primitives":[
				{
					"attributes":{
						"POSITION":0,
						"NORMAL":1,
						"TEXCOORD_0":2
					},
					"indices":3,
					"material":0
				}
			]
		}
	],
	"accessors":[
		{
			"bufferView":0,
			"componentType":5126,
			"count":698,
			"max":[
				0.3024190664291382,
				0.37835103273391724,
				0.3197179138660431
			],
			"min":[
				-0.29451295733451843,
				-0.010195765644311905,
				-0.33872538805007935
			],
			"type":"VEC3"
		},
		{
			"bufferView":1,
			"componentType":5126,
			"count":698,
			"type":"VEC3"
		},
		{
			"bufferView":2,
			"componentType":5126,
			"count":698,
			"type":"VEC2"
		},
		{
			"bufferView":3,
			"componentType":5123,
			"count":1764,
			"type":"SCALAR"
		}
	],
	"bufferViews":[
		{
			"buffer":0,
			"byteLength":8376,
			"byteOffset":0,
			"target":34962
		},
		{
			"buffer":0,
			"byteLength":8376,
			"byteOffset":8376,
			"target":34962
		},
		{
			"buffer":0,
			"byteLength":5584,
			"byteOffset":16752,
			"target":34962
		},
		{
			"buffer":0,
			"byteLength":3528,
			"byteOffset":22336,
			"target":34963
		}
	],
	"buffers":[
		{
			"byteLength":25864,
			"uri":"Resource_Rock_2-b3dbd7725278563522a4f2974bbdfe7c.bin"
		}
	]
}
