{
	"asset":{
		"generator":"Khronos glTF Blender I/O v3.6.27",
		"version":"2.0"
	},
	"scene":0,
	"scenes":[
		{
			"extras":{
				"kitsu":{},
				"wiggle":{}
			},
			"name":"Scene",
			"nodes":[
				0
			]
		}
	],
	"nodes":[
		{
			"mesh":0,
			"name":"Resource_PineTree"
		}
	],
	"materials":[
		{
			"doubleSided":true,
			"name":"Wood",
			"pbrMetallicRoughness":{
				"baseColorFactor":[
					0.24618732929229736,
					0.14435896277427673,
					0.053798429667949677,
					1
				],
				"metallicFactor":0,
				"roughnessFactor":0.5
			}
		},
		{
			"doubleSided":true,
			"name":"Green",
			"pbrMetallicRoughness":{
				"baseColorFactor":[
					0.09404914081096649,
					0.1788560301065445,
					0.012008205987513065,
					1
				],
				"metallicFactor":0,
				"roughnessFactor":0.5
			}
		}
	],
	"meshes":[
		{
			"name":"Cylinder.004",
			"primitives":[
				{
					"attributes":{
						"POSITION":0,
						"NORMAL":1
					},
					"indices":2,
					"material":0
				},
				{
					"attributes":{
						"POSITION":3,
						"NORMAL":4
					},
					"indices":5,
					"material":1
				}
			]
		}
	],
	"accessors":[
		{
			"bufferView":0,
			"componentType":5126,
			"count":30,
			"max":[
				0.025334225967526436,
				0.3703466057777405,
				0.026733290404081345
			],
			"min":[
				-0.03581402078270912,
				0.002622906817123294,
				-0.026733290404081345
			],
			"type":"VEC3"
		},
		{
			"bufferView":1,
			"componentType":5126,
			"count":30,
			"type":"VEC3"
		},
		{
			"bufferView":2,
			"componentType":5123,
			"count":144,
			"type":"SCALAR"
		},
		{
			"bufferView":3,
			"componentType":5126,
			"count":271,
			"max":[
				0.17220434546470642,
				0.6400837898254395,
				0.17439329624176025
			],
			"min":[
				-0.1803957223892212,
				0.07123243063688278,
				-0.17656320333480835
			],
			"type":"VEC3"
		},
		{
			"bufferView":4,
			"componentType":5126,
			"count":271,
			"type":"VEC3"
		},
		{
			"bufferView":5,
			"componentType":5123,
			"count":891,
			"type":"SCALAR"
		}
	],
	"bufferViews":[
		{
			"buffer":0,
			"byteLength":360,
			"byteOffset":0,
			"target":34962
		},
		{
			"buffer":0,
			"byteLength":360,
			"byteOffset":360,
			"target":34962
		},
		{
			"buffer":0,
			"byteLength":288,
			"byteOffset":720,
			"target":34963
		},
		{
			"buffer":0,
			"byteLength":3252,
			"byteOffset":1008,
			"target":34962
		},
		{
			"buffer":0,
			"byteLength":3252,
			"byteOffset":4260,
			"target":34962
		},
		{
			"buffer":0,
			"byteLength":1782,
			"byteOffset":7512,
			"target":34963
		}
	],
	"buffers":[
		{
			"byteLength":9296,
			"uri":"Resource_PineTree-37c045f2799c8b67c9d9c1bd193e91ed.bin"
		}
	]
}
