{
	"asset":{
		"generator":"Khronos glTF Blender I/O v3.6.27",
		"version":"2.0"
	},
	"scene":0,
	"scenes":[
		{
			"extras":{
				"kitsu":{},
				"wiggle":{}
			},
			"name":"Scene",
			"nodes":[
				0
			]
		}
	],
	"nodes":[
		{
			"mesh":0,
			"name":"Resource_Tree_Group_Cut"
		}
	],
	"materials":[
		{
			"doubleSided":true,
			"name":"Wood",
			"pbrMetallicRoughness":{
				"baseColorFactor":[
					0.24618732929229736,
					0.14435896277427673,
					0.053798429667949677,
					1
				],
				"metallicFactor":0,
				"roughnessFactor":0.5
			}
		},
		{
			"doubleSided":true,
			"name":"Wood_Light",
			"pbrMetallicRoughness":{
				"baseColorFactor":[
					0.3757452964782715,
					0.24318844079971313,
					0.09746062755584717,
					1
				],
				"metallicFactor":0,
				"roughnessFactor":0.5
			}
		}
	],
	"meshes":[
		{
			"name":"Cylinder.020",
			"primitives":[
				{
					"attributes":{
						"POSITION":0,
						"NORMAL":1
					},
					"indices":2,
					"material":0
				},
				{
					"attributes":{
						"POSITION":3,
						"NORMAL":4
					},
					"indices":5,
					"material":1
				}
			]
		}
	],
	"accessors":[
		{
			"bufferView":0,
			"componentType":5126,
			"count":642,
			"max":[
				0.7954654097557068,
				0.1641969084739685,
				1.1075855493545532
			],
			"min":[
				-0.7370250821113586,
				-0.005802207160741091,
				-0.7277571558952332
			],
			"type":"VEC3"
		},
		{
			"bufferView":1,
			"componentType":5126,
			"count":642,
			"type":"VEC3"
		},
		{
			"bufferView":2,
			"componentType":5123,
			"count":1956,
			"type":"SCALAR"
		},
		{
			"bufferView":3,
			"componentType":5126,
			"count":108,
			"max":[
				0.30663564801216125,
				0.1641969084739685,
				1.1075855493545532
			],
			"min":[
				-0.30340641736984253,
				-0.005802207160741091,
				-0.025990905240178108
			],
			"type":"VEC3"
		},
		{
			"bufferView":4,
			"componentType":5126,
			"count":108,
			"type":"VEC3"
		},
		{
			"bufferView":5,
			"componentType":5123,
			"count":252,
			"type":"SCALAR"
		}
	],
	"bufferViews":[
		{
			"buffer":0,
			"byteLength":7704,
			"byteOffset":0,
			"target":34962
		},
		{
			"buffer":0,
			"byteLength":7704,
			"byteOffset":7704,
			"target":34962
		},
		{
			"buffer":0,
			"byteLength":3912,
			"byteOffset":15408,
			"target":34963
		},
		{
			"buffer":0,
			"byteLength":1296,
			"byteOffset":19320,
			"target":34962
		},
		{
			"buffer":0,
			"byteLength":1296,
			"byteOffset":20616,
			"target":34962
		},
		{
			"buffer":0,
			"byteLength":504,
			"byteOffset":21912,
			"target":34963
		}
	],
	"buffers":[
		{
			"byteLength":22416,
			"uri":"Resource_Tree_Group_Cut-432aadec36720b414754581f04d7978e.bin"
		}
	]
}
