{
	"asset":{
		"generator":"Khronos glTF Blender I/O v3.6.27",
		"version":"2.0"
	},
	"scene":0,
	"scenes":[
		{
			"extras":{
				"kitsu":{},
				"wiggle":{}
			},
			"name":"Scene",
			"nodes":[
				0
			]
		}
	],
	"nodes":[
		{
			"mesh":0,
			"name":"Resource_Tree2"
		}
	],
	"materials":[
		{
			"doubleSided":true,
			"name":"Wood",
			"pbrMetallicRoughness":{
				"baseColorFactor":[
					0.24618732929229736,
					0.14435896277427673,
					0.053798429667949677,
					1
				],
				"metallicFactor":0,
				"roughnessFactor":0.5
			}
		},
		{
			"doubleSided":true,
			"name":"Green",
			"pbrMetallicRoughness":{
				"baseColorFactor":[
					0.09404914081096649,
					0.1788560301065445,
					0.012008205987513065,
					1
				],
				"metallicFactor":0,
				"roughnessFactor":0.5
			}
		}
	],
	"meshes":[
		{
			"name":"Cylinder.005",
			"primitives":[
				{
					"attributes":{
						"POSITION":0,
						"NORMAL":1
					},
					"indices":2,
					"material":0
				},
				{
					"attributes":{
						"POSITION":3,
						"NORMAL":4
					},
					"indices":5,
					"material":1
				}
			]
		}
	],
	"accessors":[
		{
			"bufferView":0,
			"componentType":5126,
			"count":120,
			"max":[
				0.1660127490758896,
				0.7046786546707153,
				0.026733290404081345
			],
			"min":[
				-0.20812727510929108,
				0.002622906817123294,
				-0.026733290404081345
			],
			"type":"VEC3"
		},
		{
			"bufferView":1,
			"componentType":5126,
			"count":120,
			"type":"VEC3"
		},
		{
			"bufferView":2,
			"componentType":5123,
			"count":672,
			"type":"SCALAR"
		},
		{
			"bufferView":3,
			"componentType":5126,
			"count":84,
			"max":[
				0.3340355157852173,
				0.8825598359107971,
				0.1489664614200592
			],
			"min":[
				-0.3569090962409973,
				0.5158611536026001,
				-0.1489662528038025
			],
			"type":"VEC3"
		},
		{
			"bufferView":4,
			"componentType":5126,
			"count":84,
			"type":"VEC3"
		},
		{
			"bufferView":5,
			"componentType":5123,
			"count":480,
			"type":"SCALAR"
		}
	],
	"bufferViews":[
		{
			"buffer":0,
			"byteLength":1440,
			"byteOffset":0,
			"target":34962
		},
		{
			"buffer":0,
			"byteLength":1440,
			"byteOffset":1440,
			"target":34962
		},
		{
			"buffer":0,
			"byteLength":1344,
			"byteOffset":2880,
			"target":34963
		},
		{
			"buffer":0,
			"byteLength":1008,
			"byteOffset":4224,
			"target":34962
		},
		{
			"buffer":0,
			"byteLength":1008,
			"byteOffset":5232,
			"target":34962
		},
		{
			"buffer":0,
			"byteLength":960,
			"byteOffset":6240,
			"target":34963
		}
	],
	"buffers":[
		{
			"byteLength":7200,
			"uri":"Resource_Tree2-984f2af2b818c069cb555216bf7ea225.bin"
		}
	]
}
